<svg id="Capa_1" data-name="Capa 1" xmlns="http://www.w3.org/2000/svg" viewBox="0 0 800 200"><defs><style>.cls-1{fill:#6094d8;}.cls-2{font-size:18.6px;fill:#4c4a47;font-family:LeagueSpartan-Bold, League Spartan;font-weight:700;}.cls-3{letter-spacing:-0.03em;}.cls-4{letter-spacing:-0.03em;}.cls-5{letter-spacing:0em;}.cls-6{letter-spacing:-0.05em;}.cls-7{letter-spacing:-0.02em;}</style></defs><title>TITULO INTEGRIDAD</title><path class="cls-1" d="M51.15,51.06v49H43.84v-49Z"/><path class="cls-1" d="M109.22,100v-49h8.55c2.49,7.82,9.45,32.61,10.16,35.8H128c-.36-6.26-.41-13.15-.41-21.17V51.06h6.8v49h-8.25c-2.21-7.25-9.7-34.14-10.45-37h-.09c.39,5.92.43,13.05.43,21.87V100Z"/><path class="cls-1" d="M197.57,57.15h-8.78V51.06h24.89v6.09h-8.8V100h-7.31Z"/><path class="cls-1" d="M287.23,77.09H275.14V94H289l-.95,6H267.83v-49h20.08v6.09H275.14v13.9h12.09Z"/><path class="cls-1" d="M367.81,100h-5.73a31.46,31.46,0,0,1-.42-3.91c-1.45,3.41-4.59,4.6-8.12,4.6-7.82,0-10.36-5.12-10.36-13.22V63.86c0-8,3.53-13.49,12.4-13.49,10.63,0,12.06,6.92,12.06,12.58V64.4h-7.31V62.69c0-2.94-.43-6.33-4.77-6.33-3.37,0-4.93,2-4.93,6.61V88.1c0,4.3,1.32,6.78,4.76,6.78,4.21,0,5.09-3.33,5.09-8.88V78.58h-5.31V72.9h12.64Z"/><path class="cls-1" d="M432.57,77.72V100h-7.31v-49H436c8.26,0,12.79,3.07,12.79,11.58v2c0,7.15-3.09,9.41-5.55,10.25,3.29,1.26,5,3.44,5,10,0,4.15-.09,12,.51,15.07h-7.08c-.71-3-.57-11.12-.57-14.62,0-6.13-.92-7.68-6-7.68Zm0-5.47h2.62c4.75,0,6.27-2,6.27-7.29V63.07c0-4.07-1.07-6.53-6.13-6.53h-2.76Z"/><path class="cls-1" d="M513,51.06v49h-7.31v-49Z"/><path class="cls-1" d="M571,51.06H582c11.65,0,13.91,5.87,13.91,14.4v19c0,7.5-1.38,15.55-14.08,15.55H571Zm7.31,43.33h2.94c6,0,7.13-3.26,7.13-8.89V64.86c0-5-1-8.12-7.13-8.12h-2.94Z"/><path class="cls-1" d="M659.14,85.86,656.94,100h-7.43l8.86-49h10.35l9.21,49h-7.65l-2.42-14.16Zm7.83-6c-1.52-9.35-2.79-17.43-3.37-22.58h-.27c-.23,3.93-2,14.64-3.24,22.58Z"/><path class="cls-1" d="M732.57,51.06h10.92c11.65,0,13.91,5.87,13.91,14.4v19C757.4,92,756,100,743.33,100H732.57Zm7.31,43.33h3c6,0,7.12-3.26,7.12-8.89V64.86c0-5-1-8.12-7.13-8.12h-2.94Z"/><text class="cls-2" transform="translate(427.85 132.15)">UN PROD<tspan class="cls-3" x="90.01" y="0">U</tspan><tspan x="103.25" y="0">C</tspan><tspan class="cls-4" x="117.25" y="0">T</tspan><tspan class="cls-5" x="127.74" y="0">O DE MR ZOL</tspan><tspan class="cls-6" x="255.82" y="0">U</tspan><tspan x="268.77" y="0">TIO</tspan><tspan class="cls-7" x="301.89" y="0">N</tspan><tspan x="316.88" y="0">S</tspan></text></svg>